<svg xmlns="http://www.w3.org/2000/svg" version="1.1" xmlns:xlink="http://www.w3.org/1999/xlink" width="512" height="512" x="0" y="0" viewBox="0 0 512 512" style="enable-background:new 0 0 512 512" xml:space="preserve" class="hovered-paths"><g><linearGradient id="a" x1="-25.142" x2="499.369" y1="497.142" y2="-27.369" data-name="New Gradient Swatch 1" gradientUnits="userSpaceOnUse"><stop offset="0" stop-color="#003f8a"></stop><stop offset=".518" stop-color="#00d7df"></stop><stop offset="1" stop-color="#006df0"></stop></linearGradient><linearGradient xlink:href="#a" id="b" x1="58.858" x2="583.369" y1="581.142" y2="56.631"></linearGradient><linearGradient xlink:href="#a" id="c" x1="34.858" x2="559.369" y1="557.142" y2="32.631"></linearGradient><linearGradient xlink:href="#a" id="d" x1="7.925" x2="532.436" y1="530.208" y2="5.697"></linearGradient><linearGradient xlink:href="#a" id="e" x1="-11.142" x2="513.369" y1="511.142" y2="-13.369"></linearGradient><linearGradient xlink:href="#a" id="f" x1="82.858" x2="607.369" y1="605.142" y2="80.631"></linearGradient><linearGradient xlink:href="#a" id="g" x1="118.858" x2="643.369" y1="641.142" y2="116.631"></linearGradient><linearGradient xlink:href="#a" id="h" x1="160.858" x2="685.369" y1="683.142" y2="158.631"></linearGradient><linearGradient xlink:href="#a" id="i" x1="-139.142" x2="385.369" y1="383.142" y2="-141.369"></linearGradient><linearGradient xlink:href="#a" id="j" x1="42.858" x2="567.369" y1="565.142" y2="40.631"></linearGradient><path fill="url(#a)" d="M476 104H36a28.031 28.031 0 0 0-28 28v168a28.031 28.031 0 0 0 28 28h440a28.031 28.031 0 0 0 28-28V132a28.031 28.031 0 0 0-28-28zm-60 208H96v-32h320zm72-12a12.01 12.01 0 0 1-12 12h-44v-40a8 8 0 0 0-8-8H88a8 8 0 0 0-8 8v40H36a12.01 12.01 0 0 1-12-12V132a12.01 12.01 0 0 1 12-12h440a12.01 12.01 0 0 1 12 12z" opacity="1" data-original="url(#a)" class="hovered-path"></path><path fill="url(#b)" d="M256 344a8 8 0 0 0-8 8v64a8 8 0 0 0 16 0v-64a8 8 0 0 0-8-8z" opacity="1" data-original="url(#b)"></path><path fill="url(#c)" d="M208 344a8 8 0 0 0-8 8v64a8 8 0 0 0 16 0v-64a8 8 0 0 0-8-8z" opacity="1" data-original="url(#c)"></path><path fill="url(#d)" d="M160 344a8 8 0 0 0-8 8v44a12.013 12.013 0 0 1-12 12h-28a8 8 0 0 0 0 16h28a28.032 28.032 0 0 0 28-28v-44a8 8 0 0 0-8-8z" opacity="1" data-original="url(#d)"></path><path fill="url(#e)" d="M88 408h-8a8 8 0 0 0 0 16h8a8 8 0 0 0 0-16z" opacity="1" data-original="url(#e)"></path><path fill="url(#f)" d="M304 344a8 8 0 0 0-8 8v64a8 8 0 0 0 16 0v-64a8 8 0 0 0-8-8z" opacity="1" data-original="url(#f)"></path><path fill="url(#g)" d="M400 408h-28a12.013 12.013 0 0 1-12-12v-44a8 8 0 0 0-16 0v44a28.032 28.032 0 0 0 28 28h28a8 8 0 0 0 0-16z" opacity="1" data-original="url(#g)"></path><path fill="url(#h)" d="M432 408h-8a8 8 0 0 0 0 16h8a8 8 0 0 0 0-16z" opacity="1" data-original="url(#h)"></path><path fill="url(#i)" d="M120 136H48a8 8 0 0 0-8 8v32a8 8 0 0 0 8 8h72a8 8 0 0 0 8-8v-32a8 8 0 0 0-8-8zm-8 32H56v-16h56z" opacity="1" data-original="url(#i)"></path><path fill="url(#j)" d="M464 136h-32a8 8 0 0 0-8 8v32a8 8 0 0 0 8 8h32a8 8 0 0 0 8-8v-32a8 8 0 0 0-8-8zm-8 32h-16v-16h16z" opacity="1" data-original="url(#j)"></path></g></svg>