<svg xmlns="http://www.w3.org/2000/svg" version="1.1" xmlns:xlink="http://www.w3.org/1999/xlink" width="512" height="512" x="0" y="0" viewBox="0 0 512 512" style="enable-background:new 0 0 512 512" xml:space="preserve"><g><linearGradient id="a" x1="22.644" x2="531.19" y1="527.224" y2="18.677" data-name="New Gradient Swatch 1" gradientUnits="userSpaceOnUse"><stop offset="0" stop-color="#003f8a"></stop><stop offset=".518" stop-color="#00d7df"></stop><stop offset="1" stop-color="#006df0"></stop></linearGradient><path fill="url(#a)" d="M496 336h-24v-44a28.031 28.031 0 0 0-28-28h-4V124a28.031 28.031 0 0 0-28-28H100a28.031 28.031 0 0 0-28 28v140h-4a28.031 28.031 0 0 0-28 28v44H16a8 8 0 0 0-8 8v64a8 8 0 0 0 8 8h24a8 8 0 0 0 7.76-6.06L54.25 384h403.5l6.49 25.94A8 8 0 0 0 472 416h24a8 8 0 0 0 8-8v-64a8 8 0 0 0-8-8zM88 124a12.01 12.01 0 0 1 12-12h312a12.01 12.01 0 0 1 12 12v140h-24v-28a20.02 20.02 0 0 0-20-20h-88a20.02 20.02 0 0 0-20 20v28h-32v-28a20.02 20.02 0 0 0-20-20h-88a20.02 20.02 0 0 0-20 20v28H88zm296 112v28h-96v-28a4 4 0 0 1 4-4h88a4 4 0 0 1 4 4zm-160 0v28h-96v-28a4 4 0 0 1 4-4h88a4 4 0 0 1 4 4zM56 292a12.01 12.01 0 0 1 12-12h376a12.01 12.01 0 0 1 12 12v44H56zM33.75 400H24v-16h13.75zM488 400h-9.75l-4-16H488zm0-32H24v-16h464z" opacity="1" data-original="url(#a)"></path></g></svg>