<svg xmlns="http://www.w3.org/2000/svg" version="1.1" xmlns:xlink="http://www.w3.org/1999/xlink" width="512" height="512" x="0" y="0" viewBox="0 0 512 512" style="enable-background:new 0 0 512 512" xml:space="preserve"><g><linearGradient id="a" x1="71.841" x2="449.658" y1="423.415" y2="45.598" gradientUnits="userSpaceOnUse"><stop offset="0" stop-color="#fcc60e"></stop><stop offset="1" stop-color="#e92e29"></stop></linearGradient><path fill="url(#a)" d="M136.587 322.105h291.968a41.744 41.744 0 0 0 40.656-31.936l42.498-174.366a12 12 0 0 0-11.659-14.842H108.852L91.961 30.03a12 12 0 0 0-11.674-9.22H30.051c-6.627 0-12 5.373-12 12s5.373 12 12 12H70.81l13.371 56.152H11.949c-6.628 0-12 5.373-12 12s5.372 12 12 12h472.825l-38.881 159.523c-1.986 8.146-8.954 13.62-17.339 13.62H136.587c-25.56 0-46.354 20.794-46.354 46.354 0 25.561 20.794 46.355 46.354 46.355h4.341c-18.755 7.936-31.948 26.524-31.948 48.136 0 28.805 23.435 52.239 52.239 52.239s52.238-23.434 52.238-52.239c0-21.612-13.192-40.2-31.947-48.136h230.026c-18.755 7.936-31.948 26.524-31.948 48.136 0 28.805 23.435 52.239 52.239 52.239s52.239-23.434 52.239-52.239c0-21.612-13.193-40.2-31.948-48.136h17.154c6.628 0 12-5.373 12-12s-5.372-12-12-12H136.587c-12.326 0-22.354-10.028-22.354-22.355 0-12.325 10.028-22.354 22.354-22.354zM161.22 467.19c-15.571 0-28.239-12.668-28.239-28.239s12.668-28.239 28.239-28.239c15.57 0 28.238 12.668 28.238 28.239S176.79 467.19 161.22 467.19zm270.608 0c-15.571 0-28.239-12.668-28.239-28.239s12.668-28.239 28.239-28.239 28.239 12.668 28.239 28.239-12.668 28.239-28.239 28.239zM85.36 190.676c-6.627 0-12-5.373-12-12s5.373-12 12-12h146.572c6.627 0 12 5.373 12 12s-5.373 12-12 12zm80.109 65.715H20.168c-6.627 0-12-5.373-12-12s5.373-12 12-12h145.301c6.627 0 12 5.373 12 12s-5.373 12-12 12z" opacity="1" data-original="url(#a)"></path></g></svg>