<svg xmlns="http://www.w3.org/2000/svg" version="1.1" xmlns:xlink="http://www.w3.org/1999/xlink" width="512" height="512" x="0" y="0" viewBox="0 0 64 64" style="enable-background:new 0 0 512 512" xml:space="preserve"><g><linearGradient id="a" x1="4" x2="60" y1="32.012" y2="32.012" gradientUnits="userSpaceOnUse"><stop offset="0" stop-color="#096fe0"></stop><stop offset=".158" stop-color="#167ce3"></stop><stop offset="1" stop-color="#5ec3f6"></stop></linearGradient><path fill="url(#a)" d="m56.55 48.63.28 3.07a4.72 4.72 0 0 1-1.3 3.74c-10.57 10.125-24.954 3.127-37.35-9.38C8.72 36.58 3.95 27.87 4 20.17c-.003-6.377 4.306-13.415 8.55-12.84l3.07.28c1.25.12 2.36.91 2.87 2.06l4.46 9.96c.52 1.16.37 2.53-.4 3.55l-3.24 4.31c.48 1.3 2.25 5.35 7.16 10.26 4.9 4.91 8.94 6.69 10.24 7.18l4.3-3.25a3.52 3.52 0 0 1 3.55-.4l9.93 4.47c1.15.52 1.94 1.62 2.06 2.88zm-4.929-36.442c-4.546-4.584-10.336-7.503-16.744-8.441-1.297-.167-1.593 1.761-.29 1.978C46.59 7.331 56.438 17.34 58.01 29.348c.206 1.292 2.148 1.022 1.98-.286-.93-6.457-3.824-12.292-8.369-16.874zm-18.04.674c8.846 1.147 16.227 8.651 17.35 17.502.204 1.296 2.145 1.027 1.981-.28-1.233-9.713-9.338-17.943-19.049-19.201-1.296-.158-1.589 1.765-.283 1.98zM32.564 20c5.785.774 10.532 5.6 11.288 11.388.21 1.297 2.147 1.018 1.981-.285-.87-6.647-6.335-12.194-12.978-13.082-1.306-.17-1.586 1.766-.29 1.979zm-1.01 7.137c2.676.358 4.872 2.591 5.221 5.27.213 1.3 2.146 1.017 1.98-.285-.463-3.539-3.376-6.492-6.912-6.964-1.304-.174-1.587 1.77-.29 1.979z" opacity="1" data-original="url(#a)"></path></g></svg>