<svg xmlns="http://www.w3.org/2000/svg" version="1.1" xmlns:xlink="http://www.w3.org/1999/xlink" width="512" height="512" x="0" y="0" viewBox="0 0 512 512" style="enable-background:new 0 0 512 512" xml:space="preserve"><g><defs><linearGradient id="a" x1="-10.568" x2="502.072" y1="450.568" y2="-62.072" data-name="New Gradient Swatch 1" gradientUnits="userSpaceOnUse"><stop offset="0" stop-color="#003f8a"></stop><stop offset=".518" stop-color="#00d7df"></stop><stop offset="1" stop-color="#006df0"></stop></linearGradient><linearGradient xlink:href="#a" id="b" x1="37.432" x2="550.072" y1="498.568" y2="-14.072"></linearGradient><linearGradient xlink:href="#a" id="c" x1="84.68" x2="597.321" y1="545.817" y2="33.176"></linearGradient><linearGradient xlink:href="#a" id="d" x1="23.432" x2="536.072" y1="484.568" y2="-28.072"></linearGradient></defs><circle cx="248" cy="192" r="16" fill="url(#a)" opacity="1" data-original="url(#a)"></circle><circle cx="344" cy="192" r="16" fill="url(#b)" opacity="1" data-original="url(#b)"></circle><path fill="url(#c)" d="M438.49 360.6 360 337.98v-27.63c20.29-15.67 37.55-37.47 44.6-62.35H428a28.031 28.031 0 0 0 28-28v-48a28.031 28.031 0 0 0-28-28h-20v-16a112 112 0 0 0-224 0v16h-20a28.031 28.031 0 0 0-28 28v48a28.031 28.031 0 0 0 28 28h4v32a8 8 0 0 0 8 8h32.91A142.581 142.581 0 0 0 232 310.35v27.63l-16 4.61V324a20.02 20.02 0 0 0-20-20H28a20.02 20.02 0 0 0-20 20v120a20.02 20.02 0 0 0 20 20h41.14l-3.56 16H48a8 8 0 0 0 0 16h448a8 8 0 0 0 8-8v-42.33a88.03 88.03 0 0 0-65.51-85.07ZM432 160.7a12.014 12.014 0 0 1 8 11.3v48a12.014 12.014 0 0 1-8 11.3Zm-24-.7h8v72h-8Zm-248 71.3a12.014 12.014 0 0 1-8-11.3v-48a12.014 12.014 0 0 1 8-11.3Zm214.08 127.39-32.99 62.71-32.33-15.84 45.91-52.46ZM296 395.85l-48-54.86V321.1c16.38 9.48 33.46 14.9 48 14.9s31.62-5.42 48-14.9v19.89ZM200 128a96 96 0 0 1 192 0v27.31a79.215 79.215 0 0 1-41.3-31.53 8.009 8.009 0 0 0-10.77-2.37c-.6.37-59.24 35.26-139.93 37.48Zm-24 32h8v72h-8Zm8 112v-24h3.4a103.55 103.55 0 0 0 10.34 24Zm46.51 16h34.87A24.031 24.031 0 0 0 288 304h16a24 24 0 0 0 0-48h-16a24.031 24.031 0 0 0-22.62 16h-48.76C202.55 252.32 200 234.37 200 224v-49.11c70.26-1.8 123.83-26.71 141.78-36.2A93.971 93.971 0 0 0 392 171.94V224c0 13.75-4.46 40.8-34.34 67.58C338.4 308.84 314.19 320 296 320s-42.4-11.16-61.66-28.42c-1.33-1.19-2.6-2.39-3.83-3.58Zm49.49-8a8.011 8.011 0 0 1 8-8h16a8 8 0 0 1 0 16h-16a8.011 8.011 0 0 1-8-8Zm-42.67 73.1 45.83 52.38-31.73 15.86-33.03-62.79ZM81.97 480l4.98-22.38v-.01L94.42 424h35.16l7.47 33.61v.01l4.98 22.38Zm69.34-32-7.5-33.74A7.994 7.994 0 0 0 136 408H88a7.994 7.994 0 0 0-7.81 6.26L72.69 448H28a4 4 0 0 1-4-4V324a4 4 0 0 1 4-4h168a4 4 0 0 1 4 4v120a4 4 0 0 1-4 4Zm114.92 32H158.42l-3.56-16H196a20.02 20.02 0 0 0 20-20v-55.64l24.92 47.36a8.011 8.011 0 0 0 10.66 3.44l5.64-2.83 14.14 28.28Zm16.87 0 2.67-8h20.69l3 8Zm23.96-24h-22.12l-13.41-26.82 24.28-12.14 24.68 12.08ZM488 480h-40v-24a8 8 0 0 0-16 0v24H326.54l-5.82-15.54 14.14-28.3 6.17 3.02a7.882 7.882 0 0 0 3.51.82 8 8 0 0 0 7.09-4.28l38.15-72.51L434.15 376a1.209 1.209 0 0 1 .18.05A72.03 72.03 0 0 1 488 445.67Z" opacity="1" data-original="url(#c)"></path><path fill="url(#d)" d="M24 480h-8a8 8 0 0 0 0 16h8a8 8 0 0 0 0-16Z" opacity="1" data-original="url(#d)"></path></g></svg>