<svg xmlns="http://www.w3.org/2000/svg" version="1.1" xmlns:xlink="http://www.w3.org/1999/xlink" width="512" height="512" x="0" y="0" viewBox="0 0 512 512" style="enable-background:new 0 0 512 512" xml:space="preserve"><g><linearGradient id="a" x1="-14.52" x2="516.444" y1="526.52" y2="-4.444" data-name="New Gradient Swatch 1" gradientUnits="userSpaceOnUse"><stop offset="0" stop-color="#003f8a"></stop><stop offset=".518" stop-color="#00d7df"></stop><stop offset="1" stop-color="#006df0"></stop></linearGradient><path fill="url(#a)" d="M496 216h-16v-24a8 8 0 0 0-8-8h-40v-32a8 8 0 0 0-8-8h-64a8 8 0 0 0-8 8v72H160v-72a8 8 0 0 0-8-8H88a8 8 0 0 0-8 8v32H40a8 8 0 0 0-8 8v26H16a8 8 0 0 0-8 8v62a8 8 0 0 0 8 8h16v24a8 8 0 0 0 8 8h40v32a8 8 0 0 0 8 8h64a8 8 0 0 0 8-8v-72h192v72a8 8 0 0 0 8 8h64a8 8 0 0 0 8-8v-32h40a8 8 0 0 0 8-8v-26h16a8 8 0 0 0 8-8v-62a8 8 0 0 0-8-8zM32 280h-8v-46h8zm48 32H48V200h32zm64 40H96V160h48zm208-80H160v-32h192zm64 80h-48V160h48zm48-40h-32V200h32zm24-34h-8v-46h8z" opacity="1" data-original="url(#a)"></path></g></svg>