<svg xmlns="http://www.w3.org/2000/svg" version="1.1" xmlns:xlink="http://www.w3.org/1999/xlink" width="512" height="512" x="0" y="0" viewBox="0 0 496 495" style="enable-background:new 0 0 512 512" xml:space="preserve"><g><linearGradient id="a"><stop offset="0" stop-color="#003f8a"></stop><stop offset=".518" stop-color="#00d7df"></stop><stop offset="1" stop-color="#006df0"></stop></linearGradient><linearGradient xlink:href="#a" id="b" x1="-79.872" x2="420.392" y1="416.372" y2="-83.892" gradientUnits="userSpaceOnUse"></linearGradient><linearGradient xlink:href="#a" id="c" x1="84.128" x2="584.392" y1="580.372" y2="80.108" gradientUnits="userSpaceOnUse"></linearGradient><linearGradient xlink:href="#a" id="d" x1="44.128" x2="544.392" y1="540.372" y2="40.108" gradientUnits="userSpaceOnUse"></linearGradient><linearGradient xlink:href="#a" id="e" x1="124.128" x2="624.392" y1="620.372" y2="120.108" gradientUnits="userSpaceOnUse"></linearGradient><linearGradient xlink:href="#a" id="f" x1="4.128" x2="504.392" y1="500.372" y2=".108" gradientUnits="userSpaceOnUse"></linearGradient><linearGradient xlink:href="#a" id="g" x1="164.128" x2="664.392" y1="660.372" y2="160.108" gradientUnits="userSpaceOnUse"></linearGradient><g fill="url(#b)"><path d="M8 200.5h44.383a119.13 119.13 0 0 0 11.265 27.105l-31.41 31.399a8.003 8.003 0 0 0 0 11.32l33.938 33.946a8.004 8.004 0 0 0 11.312 0l31.414-31.418A118.897 118.897 0 0 0 136 284.117V328.5a8 8 0 0 0 8 8h48a8 8 0 0 0 8-8v-44.383a118.897 118.897 0 0 0 27.098-11.265l31.414 31.418c3.175 3 8.14 3 11.312 0l33.946-33.946a8.003 8.003 0 0 0 0-11.32l-31.418-31.399a119.13 119.13 0 0 0 11.265-27.105H328a8 8 0 0 0 8-8v-48a8 8 0 0 0-8-8h-44.383a119.13 119.13 0 0 0-11.265-27.105l31.41-31.399a8.003 8.003 0 0 0 0-11.32L269.824 32.73a8.004 8.004 0 0 0-11.312 0l-31.414 31.418A119.322 119.322 0 0 0 200 52.883V8.5a8 8 0 0 0-8-8h-48a8 8 0 0 0-8 8v44.383a119.322 119.322 0 0 0-27.098 11.265L77.488 32.73c-3.176-3-8.14-3-11.312 0L32.23 66.676a8.003 8.003 0 0 0 0 11.32l31.418 31.399A119.13 119.13 0 0 0 52.383 136.5H8a8 8 0 0 0-8 8v48a8 8 0 0 0 8 8zm8-48h42.64a8.003 8.003 0 0 0 7.817-6.29 102.907 102.907 0 0 1 14.016-33.71 8.004 8.004 0 0 0-1.082-9.977L49.199 72.332l22.633-22.633 30.184 30.192A8.004 8.004 0 0 0 112 80.973a103.11 103.11 0 0 1 33.71-14.016 8.003 8.003 0 0 0 6.29-7.816V16.5h32v42.64a8.003 8.003 0 0 0 6.29 7.817A103.11 103.11 0 0 1 224 80.973a8.004 8.004 0 0 0 9.984-1.082l30.184-30.192 22.625 22.633-30.184 30.184a8.004 8.004 0 0 0-1.082 9.984 102.847 102.847 0 0 1 14.008 33.719 8.003 8.003 0 0 0 7.817 6.289H320v32h-42.648a8.003 8.003 0 0 0-7.817 6.289 102.815 102.815 0 0 1-14.008 33.703 8.004 8.004 0 0 0 1.082 9.977l30.192 30.183-22.633 22.64-30.184-30.19a8.004 8.004 0 0 0-9.984-1.083 102.832 102.832 0 0 1-33.703 14.016 8 8 0 0 0-6.297 7.816V320.5h-32v-42.64a8 8 0 0 0-6.297-7.817A102.832 102.832 0 0 1 112 256.027a8.004 8.004 0 0 0-9.984 1.082l-30.184 30.192-22.625-22.633 30.184-30.184a8.004 8.004 0 0 0 1.082-9.984 102.948 102.948 0 0 1-14.016-33.719 8 8 0 0 0-7.816-6.281H16zm0 0" fill="" opacity="1"></path><path d="M168 232.5c35.348 0 64-28.652 64-64s-28.652-64-64-64-64 28.652-64 64c.04 35.328 28.672 63.96 64 64zm0-112c26.508 0 48 21.492 48 48s-21.492 48-48 48-48-21.492-48-48c.027-26.5 21.5-47.973 48-48zm0 0" fill="" opacity="1"></path><path d="M168 256.5c48.602 0 88-39.398 88-88s-39.398-88-88-88-88 39.398-88 88c.059 48.578 39.422 87.941 88 88zm0-160c39.766 0 72 32.234 72 72s-32.234 72-72 72-72-32.234-72-72c.043-39.746 32.254-71.957 72-72zm0 0" fill="" opacity="1"></path></g><path fill="url(#c)" d="M456 368.5v-64a8 8 0 0 0-8-8h-16v-64a8 8 0 0 0-8-8h-72a8 8 0 0 0-8 8v64h-40a8 8 0 0 0-8 8v64H40c-22.082.027-39.973 17.918-40 40v16c.027 22.082 17.918 39.973 40 40h416c22.082-.027 39.973-17.918 40-40v-16c-.027-22.082-17.918-39.973-40-40zm-16 0h-56v-56h56zm-80-128h56v56h-56zm-48 72h56v56h-56zm168 112c0 13.254-10.746 24-24 24H40c-13.254 0-24-10.746-24-24v-16c0-13.254 10.746-24 24-24h416c13.254 0 24 10.746 24 24zm0 0" opacity="1" data-original="url(#c)"></path><path fill="url(#c)" d="M248 392.5c-13.254 0-24 10.746-24 24s10.746 24 24 24 24-10.746 24-24-10.746-24-24-24zm0 32a8 8 0 1 1 0-16 8 8 0 0 1 0 16zm0 0" opacity="1" data-original="url(#c)"></path><path fill="url(#d)" d="M168 392.5c-13.254 0-24 10.746-24 24s10.746 24 24 24 24-10.746 24-24-10.746-24-24-24zm0 32a8 8 0 1 1 0-16 8 8 0 0 1 0 16zm0 0" opacity="1" data-original="url(#d)"></path><path fill="url(#e)" d="M328 392.5c-13.254 0-24 10.746-24 24s10.746 24 24 24 24-10.746 24-24-10.746-24-24-24zm0 32a8 8 0 1 1 0-16 8 8 0 0 1 0 16zm0 0" opacity="1" data-original="url(#e)"></path><path fill="url(#f)" d="M88 392.5c-13.254 0-24 10.746-24 24s10.746 24 24 24 24-10.746 24-24-10.746-24-24-24zm0 32a8 8 0 1 1 0-16 8 8 0 0 1 0 16zm0 0" opacity="1" data-original="url(#f)"></path><path fill="url(#g)" d="M408 392.5c-13.254 0-24 10.746-24 24s10.746 24 24 24 24-10.746 24-24-10.746-24-24-24zm0 32a8 8 0 1 1 0-16 8 8 0 0 1 0 16zm0 0" opacity="1" data-original="url(#g)"></path></g></svg>