<svg xmlns="http://www.w3.org/2000/svg" version="1.1" xmlns:xlink="http://www.w3.org/1999/xlink" width="512" height="512" x="0" y="0" viewBox="0 0 100 100" style="enable-background:new 0 0 512 512" xml:space="preserve"><g><linearGradient id="a"><stop offset="0" stop-color="#97e0ff"></stop><stop offset="1" stop-color="#1075ff"></stop></linearGradient><linearGradient xlink:href="#a" id="b" x1="16.504" x2="108.521" y1="-19.958" y2="80.883" gradientUnits="userSpaceOnUse"></linearGradient><linearGradient xlink:href="#a" id="c" x1="25.137" x2="117.153" y1="-27.835" y2="73.006" gradientUnits="userSpaceOnUse"></linearGradient><linearGradient xlink:href="#a" id="d" x1="-16.607" x2="75.41" y1="10.256" y2="111.097" gradientUnits="userSpaceOnUse"></linearGradient><linearGradient xlink:href="#a" id="e" x1="-24.287" x2="67.73" y1="17.264" y2="118.104" gradientUnits="userSpaceOnUse"></linearGradient><path fill="url(#b)" d="M90.99 16.75H9.01l37.98 32.416a4.638 4.638 0 0 0 6.02 0z" opacity="1" data-original="url(#b)"></path><path fill="url(#c)" d="m69 48.037 28.5 28.5V23.666z" opacity="1" data-original="url(#c)"></path><path fill="url(#d)" d="m46.987 61.684-8.767-7.466L9.188 83.25h81.624L61.729 54.218l-8.721 7.46a4.638 4.638 0 0 1-6.021.006z" opacity="1" data-original="url(#d)"></path><path fill="url(#e)" d="M2.5 23.666v52.82l28.5-28.5z" opacity="1" data-original="url(#e)"></path></g></svg>