<svg xmlns="http://www.w3.org/2000/svg" version="1.1" xmlns:xlink="http://www.w3.org/1999/xlink" width="512" height="512" x="0" y="0" viewBox="0 0 512 512" style="enable-background:new 0 0 512 512" xml:space="preserve"><g><linearGradient id="a" x1="14.951" x2="524.363" y1="513.051" y2="3.64" data-name="New Gradient Swatch 1" gradientUnits="userSpaceOnUse"><stop offset="0" stop-color="#003f8a"></stop><stop offset=".518" stop-color="#00d7df"></stop><stop offset="1" stop-color="#006df0"></stop></linearGradient><linearGradient xlink:href="#a" id="b" x1="-15.05" x2="494.362" y1="483.05" y2="-26.362"></linearGradient><path fill="url(#a)" d="M496 400h-32v-10.71A28.026 28.026 0 0 0 480 364v-64a28.043 28.043 0 0 0-24-27.71V244a28.031 28.031 0 0 0-28-28H244a28.031 28.031 0 0 0-28 28v28.29A28.043 28.043 0 0 0 192 300v64a28.043 28.043 0 0 0 24 27.71V400h-72v-24a8 8 0 0 0-8-8h-32V208h48a7.993 7.993 0 0 0 7.98-8.53l-8-120A8 8 0 0 0 144 72H48a8 8 0 0 0-7.98 7.47l-8 120A7.993 7.993 0 0 0 40 208h48v160H56a8 8 0 0 0-8 8v24H16a8 8 0 0 0-8 8v24a8 8 0 0 0 8 8h480a8 8 0 0 0 8-8v-24a8 8 0 0 0-8-8zM232 244a12.01 12.01 0 0 1 12-12h184a12.01 12.01 0 0 1 12 12v28.29A28.043 28.043 0 0 0 416 300v28H256v-28a28.043 28.043 0 0 0-24-27.71zm-24 120v-64a12.01 12.01 0 0 1 12-12h8a12.01 12.01 0 0 1 12 12v36a8 8 0 0 0 8 8h176a8 8 0 0 0 8-8v-36a12.01 12.01 0 0 1 12-12h8a12.01 12.01 0 0 1 12 12v64a12.01 12.01 0 0 1-12 12H220a12.01 12.01 0 0 1-12-12zm240 28v8h-16v-8zm-32 0v8H264v-8zm-168 0v8h-16v-8zM48.55 192l6.93-104h81.04l6.93 104zM64 384h64v16H64zm424 40H24v-8h464z" opacity="1" data-original="url(#a)"></path><g fill="url(#b)"><path d="M264 192h144a8 8 0 0 0 8-8V80a8 8 0 0 0-8-8H264a8 8 0 0 0-8 8v104a8 8 0 0 0 8 8zm8-104h128v88H272z" fill="" opacity="1"></path><path d="M384 96h-96a8 8 0 0 0-8 8v56a8 8 0 0 0 8 8h96a8 8 0 0 0 8-8v-56a8 8 0 0 0-8-8zm-8 56h-80v-40h80z" fill="" opacity="1"></path></g></g></svg>