<svg xmlns="http://www.w3.org/2000/svg" version="1.1" xmlns:xlink="http://www.w3.org/1999/xlink" width="512" height="512" x="0" y="0" viewBox="0 0 512 512" style="enable-background:new 0 0 512 512" xml:space="preserve" class=""><g><linearGradient id="a" x1="-1.312" x2="490.532" y1="529.312" y2="37.468" data-name="New Gradient Swatch 1" gradientUnits="userSpaceOnUse"><stop offset="0" stop-color="#003f8a"></stop><stop offset=".518" stop-color="#00d7df"></stop><stop offset="1" stop-color="#006df0"></stop></linearGradient><linearGradient xlink:href="#a" id="b" x1="-33.312" x2="458.532" y1="497.312" y2="5.468"></linearGradient><linearGradient xlink:href="#a" id="c" x1=".688" x2="492.532" y1="531.312" y2="39.468"></linearGradient><linearGradient xlink:href="#a" id="d" x1="20.688" x2="512.532" y1="551.312" y2="59.468"></linearGradient><linearGradient xlink:href="#a" id="e" x1="24.688" x2="516.532" y1="555.312" y2="63.468"></linearGradient><linearGradient xlink:href="#a" id="f" x1="40.688" x2="532.532" y1="571.312" y2="79.468"></linearGradient><linearGradient xlink:href="#a" id="g" x1="56.688" x2="548.532" y1="587.312" y2="95.468"></linearGradient><linearGradient xlink:href="#a" id="h" x1="20.526" x2="512.371" y1="551.15" y2="59.306"></linearGradient><path fill="url(#a)" d="M476 56h-44V32a8 8 0 0 0-8-8h-32a8 8 0 0 0-8 8v24h-48V32a8 8 0 0 0-8-8h-32a8 8 0 0 0-8 8v24h-48V32a8 8 0 0 0-8-8h-32a8 8 0 0 0-8 8v24h-64V32a8 8 0 0 0-8-8H88a8 8 0 0 0-8 8v24H36A28.031 28.031 0 0 0 8 84v376a28.031 28.031 0 0 0 28 28h440a28.031 28.031 0 0 0 28-28V84a28.031 28.031 0 0 0-28-28zm-76-16h16v48h-16zm-96 0h16v48h-16zm-96 0h16v48h-16zM96 40h16v48H96zm392 420a12.01 12.01 0 0 1-12 12H36a12.01 12.01 0 0 1-12-12V136h464zm0-340H24V84a12.01 12.01 0 0 1 12-12h44v24a8 8 0 0 0 8 8h32a8 8 0 0 0 8-8V72h64v24a8 8 0 0 0 8 8h32a8 8 0 0 0 8-8V72h48v24a8 8 0 0 0 8 8h32a8 8 0 0 0 8-8V72h48v24a8 8 0 0 0 8 8h32a8 8 0 0 0 8-8V72h44a12.01 12.01 0 0 1 12 12z" opacity="1" data-original="url(#a)"></path><path fill="url(#b)" d="M208 272h-16v-16a8 8 0 0 0-16 0v16h-16a8 8 0 0 0 0 16h16v16a8 8 0 0 0 16 0v-16h16a8 8 0 0 0 0-16z" opacity="1" data-original="url(#b)"></path><path fill="url(#c)" d="M240 288h-8a8 8 0 0 0 0 16h8a8 8 0 0 0 0-16z" opacity="1" data-original="url(#c)"></path><path fill="url(#d)" d="M280 288h-8a8 8 0 0 0 0 16h8a8 8 0 0 0 0-16z" opacity="1" data-original="url(#d)"></path><path fill="url(#e)" d="M320 256h-8a8 8 0 0 0 0 16h8a8 8 0 0 0 0-16z" opacity="1" data-original="url(#e)"></path><path fill="url(#f)" d="M352 256h-8a8 8 0 0 0 0 16h8a8 8 0 0 0 0-16zM320 288h-8a8 8 0 0 0 0 16h8a8 8 0 0 0 0-16z" opacity="1" data-original="url(#f)"></path><path fill="url(#g)" d="M352 288h-8a8 8 0 0 0 0 16h8a8 8 0 0 0 0-16z" opacity="1" data-original="url(#g)"></path><path fill="url(#h)" d="m407.64 370.01-11.8-117.99a39.873 39.873 0 0 0-39.8-36.02H155.96a39.873 39.873 0 0 0-39.8 36.02l-11.8 117.99a20 20 0 0 0 19.9 21.99h34.09a19.991 19.991 0 0 0 18.98-13.68l10.52-31.58a4 4 0 0 1 3.8-2.74h128.7a4 4 0 0 1 3.8 2.73l10.53 31.6A19.973 19.973 0 0 0 353.65 392h34.09a20 20 0 0 0 19.9-21.99zM276.9 232l-2.67 8h-36.46l-2.67-8zm113.81 142.68a3.963 3.963 0 0 1-2.97 1.32h-34.09a4 4 0 0 1-3.8-2.73l-10.53-31.6A19.973 19.973 0 0 0 320.35 328h-128.7a19.991 19.991 0 0 0-18.98 13.68l-10.52 31.58a4 4 0 0 1-3.8 2.74h-34.09a4 4 0 0 1-3.98-4.4l11.8-117.99A23.923 23.923 0 0 1 155.96 232h62.27l6.18 18.53A8 8 0 0 0 232 256h48a8 8 0 0 0 7.59-5.47l6.18-18.53h62.27a23.923 23.923 0 0 1 23.88 21.61l11.8 117.99a3.983 3.983 0 0 1-1.01 3.08z" opacity="1" data-original="url(#h)"></path></g></svg>