<svg xmlns="http://www.w3.org/2000/svg" version="1.1" xmlns:xlink="http://www.w3.org/1999/xlink" width="512" height="512" x="0" y="0" viewBox="0 0 512 512" style="enable-background:new 0 0 512 512" xml:space="preserve" class=""><g><linearGradient id="a" x1="30.286" x2="564.285" y1="553.592" y2="19.593" data-name="New Gradient Swatch 1" gradientUnits="userSpaceOnUse"><stop offset="0" stop-color="#003f8a"></stop><stop offset=".518" stop-color="#00d7df"></stop><stop offset="1" stop-color="#006df0"></stop></linearGradient><path fill="url(#a)" d="M457.86 264.05a8.265 8.265 0 0 0-.86-.05h-1v-24a8 8 0 0 0-8-8h-8.18C435.61 134.24 354.78 56 256 56S76.39 134.24 72.18 232H64a8 8 0 0 0-8 8v24a48.051 48.051 0 0 0-48 48v96a48.051 48.051 0 0 0 48 48h64a8 8 0 0 0 8-8v-16h4a28.031 28.031 0 0 0 28-28v-88a28.031 28.031 0 0 0-28-28h-4v-48a7.993 7.993 0 0 0-7.76-7.99C124.39 160.73 183.69 104 256 104s131.61 56.73 135.76 128.01A7.993 7.993 0 0 0 384 240v48h-4a28.031 28.031 0 0 0-28 28v88a28.031 28.031 0 0 0 28 28h4v16a8 8 0 0 0 8 8h65a8.265 8.265 0 0 0 .86-.05A48.048 48.048 0 0 0 504 408v-96a48.048 48.048 0 0 0-46.14-47.95zM48 438.99A32.058 32.058 0 0 1 24 408v-96a32.058 32.058 0 0 1 24-30.99zM128 304h4a12.01 12.01 0 0 1 12 12v88a12.01 12.01 0 0 1-12 12h-4zm256 112h-4a12.01 12.01 0 0 1-12-12v-88a12.01 12.01 0 0 1 12-12h4zM80 440H64V280h16zm32 0H96V280h16zm0-176H72v-16h40zM256 88c-81.13 0-147.62 63.89-151.79 144H88.19C92.39 143.06 166.05 72 256 72s163.61 71.06 167.81 160h-16.02C403.62 151.89 337.13 88 256 88zm161 352h-17V280h17zm-17-176v-16h40v16zm49 176h-16V280h16zm39-32a32.044 32.044 0 0 1-23 30.7V281.3a32.044 32.044 0 0 1 23 30.7z" opacity="1" data-original="url(#a)" class=""></path></g></svg>