<svg xmlns="http://www.w3.org/2000/svg" version="1.1" xmlns:xlink="http://www.w3.org/1999/xlink" width="512" height="512" x="0" y="0" viewBox="0 0 512 512" style="enable-background:new 0 0 512 512" xml:space="preserve"><g><defs><linearGradient id="a" x1="32.424" x2="575.237" y1="555.576" y2="12.762" data-name="New Gradient Swatch 1" gradientUnits="userSpaceOnUse"><stop offset="0" stop-color="#003f8a"></stop><stop offset=".518" stop-color="#00d7df"></stop><stop offset="1" stop-color="#006df0"></stop></linearGradient><linearGradient xlink:href="#a" id="b" x1="10.424" x2="553.227" y1="533.576" y2="-9.227"></linearGradient><linearGradient xlink:href="#a" id="c" x1="13.079" x2="555.892" y1="536.231" y2="-6.582"></linearGradient></defs><path fill="url(#a)" d="M491.88 230.86A8 8 0 0 0 504 224v-40a8 8 0 0 0-3.88-6.86L432 136.27V64a8 8 0 0 0-8-8h-48a8 8 0 0 0-8 8v33.87L260.12 33.14a8.015 8.015 0 0 0-8.24 0l-240 144A8 8 0 0 0 8 184v40a8 8 0 0 0 12.12 6.86L56 209.33V440H16a8 8 0 0 0-8 8v32a8 8 0 0 0 8 8h480a8 8 0 0 0 8-8v-32a8 8 0 0 0-8-8h-40V209.33ZM384 72h32v54.67l-32-19.2Zm104 384v16H24v-16ZM72 440V199.73l184-110.4 184 110.4V440ZM260.12 73.14a8.015 8.015 0 0 0-8.24 0L24 209.87v-21.34l232-139.2 232 139.2v21.34Z" opacity="1" data-original="url(#a)"></path><path fill="url(#b)" d="M128 288a128 128 0 1 0 128-128 128.146 128.146 0 0 0-128 128Zm240 0a112 112 0 1 1-112-112 112.127 112.127 0 0 1 112 112Z" opacity="1" data-original="url(#b)"></path><path fill="url(#c)" d="M248.392 207.861 232.75 256h-50.614a8 8 0 0 0-4.7 14.472l40.948 29.751-15.641 48.138a8 8 0 0 0 12.311 8.944L256 327.555l40.948 29.75a8 8 0 0 0 12.311-8.944l-15.641-48.138 40.948-29.751a8 8 0 0 0-4.7-14.472H279.25l-15.642-48.139a8 8 0 0 0-15.216 0Zm17.437 58.612a8 8 0 0 0 7.609 5.527h31.805l-25.731 18.7a8 8 0 0 0-2.907 8.944l9.829 30.25-25.734-18.7a8 8 0 0 0-9.4 0l-25.732 18.695 9.829-30.25a8 8 0 0 0-2.907-8.944L206.757 272h31.805a8 8 0 0 0 7.609-5.527L256 236.222Z" opacity="1" data-original="url(#c)"></path></g></svg>