<svg xmlns="http://www.w3.org/2000/svg" version="1.1" xmlns:xlink="http://www.w3.org/1999/xlink" width="512" height="512" x="0" y="0" viewBox="0 0 512 512" style="enable-background:new 0 0 512 512" xml:space="preserve"><g><linearGradient id="a" x1="-8.951" x2="495.476" y1="488.951" y2="-15.476" data-name="New Gradient Swatch 1" gradientUnits="userSpaceOnUse"><stop offset="0" stop-color="#003f8a"></stop><stop offset=".518" stop-color="#00d7df"></stop><stop offset="1" stop-color="#006df0"></stop></linearGradient><linearGradient xlink:href="#a" id="b" x1="-8.451" x2="495.976" y1="489.451" y2="-14.976"></linearGradient><linearGradient xlink:href="#a" id="c" x1="-48.451" x2="455.976" y1="449.451" y2="-54.976"></linearGradient><linearGradient xlink:href="#a" id="d" x1="31.549" x2="535.976" y1="529.451" y2="25.024"></linearGradient><path fill="url(#a)" d="M426.08 70.95C380.61 30.36 320.2 8 256 8S131.39 30.36 85.92 70.95C40.19 111.78 15 166.13 15 224c0 45.95 15.8 89.66 45.74 126.64l-27.6 143.85a8 8 0 0 0 11.41 8.68l144.58-71.6A266.9 266.9 0 0 0 256 440c64.2 0 124.61-22.36 170.08-62.95C471.81 336.22 497 281.87 497 224s-25.19-112.22-70.92-153.05zM256 424a250.962 250.962 0 0 1-65.64-8.65 7.982 7.982 0 0 0-5.64.55L51.89 481.68l25.27-131.71a8.012 8.012 0 0 0-1.73-6.65C46.36 308.64 31 267.38 31 224 31 113.72 131.93 24 256 24s225 89.72 225 200-100.93 200-225 200z" opacity="1" data-original="url(#a)"></path><path fill="url(#b)" d="M257 248a24 24 0 1 1 24-24 24.028 24.028 0 0 1-24 24zm0-32a8 8 0 1 0 8 8 8.009 8.009 0 0 0-8-8z" opacity="1" data-original="url(#b)"></path><path fill="url(#c)" d="M177 248a24 24 0 1 1 24-24 24.028 24.028 0 0 1-24 24zm0-32a8 8 0 1 0 8 8 8.009 8.009 0 0 0-8-8z" opacity="1" data-original="url(#c)"></path><path fill="url(#d)" d="M337 200a24 24 0 1 0 24 24 24.032 24.032 0 0 0-24-24zm0 32a8 8 0 1 1 8-8 8.011 8.011 0 0 1-8 8z" opacity="1" data-original="url(#d)"></path></g></svg>