<svg xmlns="http://www.w3.org/2000/svg" version="1.1" xmlns:xlink="http://www.w3.org/1999/xlink" width="512" height="512" x="0" y="0" viewBox="0 0 512 512" style="enable-background:new 0 0 512 512" xml:space="preserve" class=""><g><linearGradient id="a" x1="12.416" x2="527.232" y1="523.584" y2="8.768" data-name="New Gradient Swatch 1" gradientUnits="userSpaceOnUse"><stop offset="0" stop-color="#003f8a"></stop><stop offset=".518" stop-color="#00d7df"></stop><stop offset="1" stop-color="#006df0"></stop></linearGradient><linearGradient xlink:href="#a" id="b" x1="-11.584" x2="503.232" y1="499.584" y2="-15.232"></linearGradient><path fill="url(#a)" d="M496 368h-40V108a28.031 28.031 0 0 0-28-28H84a28.031 28.031 0 0 0-28 28v260H16a8 8 0 0 0-8 8v28a28.031 28.031 0 0 0 28 28h440a28.031 28.031 0 0 0 28-28v-28a8 8 0 0 0-8-8zM72 108a12.01 12.01 0 0 1 12-12h344a12.01 12.01 0 0 1 12 12v260H72zm212.9 276-2.67 8h-52.46l-2.67-8zM488 404a12.01 12.01 0 0 1-12 12H36a12.01 12.01 0 0 1-12-12v-20h186.23l6.18 18.53A8 8 0 0 0 224 408h64a8 8 0 0 0 7.59-5.47l6.18-18.53H488z" opacity="1" data-original="url(#a)" class=""></path><path fill="url(#b)" d="M432 352V112a8 8 0 0 0-8-8H88a8 8 0 0 0-8 8v240a8 8 0 0 0 8 8h336a8 8 0 0 0 8-8zm-16-8H96V120h320z" opacity="1" data-original="url(#b)" class=""></path></g></svg>