<svg xmlns="http://www.w3.org/2000/svg" version="1.1" xmlns:xlink="http://www.w3.org/1999/xlink" width="512" height="512" x="0" y="0" viewBox="0 0 512 512" style="enable-background:new 0 0 512 512" xml:space="preserve"><g><linearGradient id="a" x1="-14.094" x2="526.62" y1="478.094" y2="-62.62" data-name="New Gradient Swatch 1" gradientUnits="userSpaceOnUse"><stop offset="0" stop-color="#003f8a"></stop><stop offset=".518" stop-color="#00d7df"></stop><stop offset="1" stop-color="#006df0"></stop></linearGradient><linearGradient xlink:href="#a" id="b" x1="-128.093" x2="412.621" y1="364.095" y2="-176.619"></linearGradient><linearGradient xlink:href="#a" id="c" x1="-68.094" x2="472.62" y1="424.094" y2="-116.62"></linearGradient><linearGradient xlink:href="#a" id="d" x1="-56.094" x2="484.62" y1="436.094" y2="-104.62"></linearGradient><linearGradient xlink:href="#a" id="e" x1="-60.094" x2="480.62" y1="432.094" y2="-108.62"></linearGradient><linearGradient xlink:href="#a" id="f" x1="-46.094" x2="494.62" y1="446.094" y2="-94.62"></linearGradient><linearGradient xlink:href="#a" id="g" x1="-34.094" x2="506.62" y1="458.094" y2="-82.62"></linearGradient><linearGradient xlink:href="#a" id="h" x1="-22.094" x2="518.62" y1="470.094" y2="-70.62"></linearGradient><linearGradient xlink:href="#a" id="i" x1="-10.094" x2="530.62" y1="482.094" y2="-58.62"></linearGradient><linearGradient xlink:href="#a" id="j" x1="-32.094" x2="508.62" y1="460.094" y2="-80.62"></linearGradient><linearGradient xlink:href="#a" id="k" x1="15.906" x2="556.62" y1="508.094" y2="-32.62"></linearGradient><linearGradient xlink:href="#a" id="l" x1="17.906" x2="558.62" y1="510.094" y2="-30.62"></linearGradient><linearGradient xlink:href="#a" id="m" x1="29.906" x2="570.62" y1="522.094" y2="-18.62"></linearGradient><linearGradient xlink:href="#a" id="n" x1="7.906" x2="548.62" y1="500.094" y2="-40.62"></linearGradient><linearGradient xlink:href="#a" id="o" x1="55.906" x2="596.62" y1="548.094" y2="7.38"></linearGradient><linearGradient xlink:href="#a" id="p" x1="113.783" x2="654.497" y1="605.971" y2="65.257"></linearGradient><linearGradient xlink:href="#a" id="q" x1="92.254" x2="632.968" y1="584.442" y2="43.728"></linearGradient><path fill="url(#a)" d="M376 8H40a8 8 0 0 0-8 8v480a8 8 0 0 0 8 8h336a8 8 0 0 0 8-8V16a8 8 0 0 0-8-8zm-8 480H48V24h320z" opacity="1" data-original="url(#a)"></path><path fill="url(#b)" d="m172.53 73.41-48-33a7.982 7.982 0 0 0-9.06 0l-48 33A8 8 0 0 0 64 80v72a8 8 0 0 0 8 8h96a8 8 0 0 0 8-8V80a8 8 0 0 0-3.47-6.59zM128 144h-16v-24h16zm32 0h-16v-32a8 8 0 0 0-8-8h-32a8 8 0 0 0-8 8v32H80V84.21l40-27.5 40 27.5z" opacity="1" data-original="url(#b)"></path><path fill="url(#c)" d="M208 88h136a8 8 0 0 0 0-16H208a8 8 0 0 0 0 16z" opacity="1" data-original="url(#c)"></path><path fill="url(#d)" d="M208 112h136a8 8 0 0 0 0-16H208a8 8 0 0 0 0 16z" opacity="1" data-original="url(#d)"></path><path fill="url(#e)" d="M208 136h72a8 8 0 0 0 0-16h-72a8 8 0 0 0 0 16z" opacity="1" data-original="url(#e)"></path><path fill="url(#f)" d="M72 200h272a8 8 0 0 0 0-16H72a8 8 0 0 0 0 16z" opacity="1" data-original="url(#f)"></path><path fill="url(#g)" d="M72 224h272a8 8 0 0 0 0-16H72a8 8 0 0 0 0 16z" opacity="1" data-original="url(#g)"></path><path fill="url(#h)" d="M72 248h272a8 8 0 0 0 0-16H72a8 8 0 0 0 0 16z" opacity="1" data-original="url(#h)"></path><path fill="url(#i)" d="M72 272h272a8 8 0 0 0 0-16H72a8 8 0 0 0 0 16z" opacity="1" data-original="url(#i)"></path><path fill="url(#j)" d="M72 296h136a8 8 0 0 0 0-16H72a8 8 0 0 0 0 16z" opacity="1" data-original="url(#j)"></path><path fill="url(#k)" d="M232 280a8 8 0 0 0 0 16h8a8 8 0 0 0 0-16z" opacity="1" data-original="url(#k)"></path><path fill="url(#l)" d="M72 328h272a8 8 0 0 0 0-16H72a8 8 0 0 0 0 16z" opacity="1" data-original="url(#l)"></path><path fill="url(#m)" d="M72 352h272a8 8 0 0 0 0-16H72a8 8 0 0 0 0 16z" opacity="1" data-original="url(#m)"></path><path fill="url(#n)" d="M72 376h136a8 8 0 0 0 0-16H72a8 8 0 0 0 0 16z" opacity="1" data-original="url(#n)"></path><path fill="url(#o)" d="M240 376a8 8 0 0 0 0-16h-8a8 8 0 0 0 0 16z" opacity="1" data-original="url(#o)"></path><path fill="url(#p)" d="m342.956 445.856-42.932 9.893c-6.977 1.606-9.957.559-10.179.119-.349-.693.129-3.308.444-5.039.649-3.556 1.455-7.98.065-12.677-2.741-9.261-12.262-14.678-26.123-14.862a150.063 150.063 0 0 0-78.042 20.675 8 8 0 0 0 8.106 13.8 133.965 133.965 0 0 1 69.724-18.471c6.511.086 10.524 1.818 10.994 3.4.306 1.039-.1 3.285-.464 5.266-.74 4.06-1.754 9.619 1 15.1 1.971 3.92 6.759 9.545 17.978 9.544a45.083 45.083 0 0 0 10.086-1.262l42.932-9.892a8 8 0 0 0-3.592-15.592z" opacity="1" data-original="url(#p)"></path><path fill="url(#q)" d="M472 56a8 8 0 0 0-8 8v32h-8V48a8 8 0 0 0-8-8v-8a24 24 0 0 0-48 0v8a8 8 0 0 0-8 8v384c0 .14.01.28.02.42.01.11.01.22.02.32a6.487 6.487 0 0 0 .11.77.127.127 0 0 0 .01.06v.01c0 .02.01.04.01.06l7.99 39.93A7.99 7.99 0 0 0 408 480h8v16a8 8 0 0 0 16 0v-16h8a7.99 7.99 0 0 0 7.84-6.43l7.99-39.93c0-.02.01-.04.01-.06v-.01a.127.127 0 0 0 .01-.06 6.487 6.487 0 0 0 .11-.77c.01-.1.01-.21.02-.32.01-.14.02-.28.02-.42V112h8v72a8 8 0 0 0 16 0V64a8 8 0 0 0-8-8zm-56-24a8 8 0 0 1 16 0v8h-16zm17.44 432h-18.88l-4.8-24h28.48zm6.56-40h-32V136h32zm0-304h-32v-8h32zm0-24h-32V56h32z" opacity="1" data-original="url(#q)"></path></g></svg>