<svg xmlns="http://www.w3.org/2000/svg" version="1.1" xmlns:xlink="http://www.w3.org/1999/xlink" width="512" height="512" x="0" y="0" viewBox="0 0 512 512" style="enable-background:new 0 0 512 512" xml:space="preserve"><g><linearGradient id="a" x1="-118.231" x2="414.881" y1="390.231" y2="-142.881" gradientUnits="userSpaceOnUse"><stop offset="0" stop-color="#003f8a"></stop><stop offset=".518" stop-color="#00d7df"></stop><stop offset="1" stop-color="#006df0"></stop></linearGradient><linearGradient xlink:href="#a" id="b" x1="-120.231" x2="412.881" y1="388.231" y2="-144.881"></linearGradient><linearGradient xlink:href="#a" id="c" x1="53.769" x2="586.881" y1="562.231" y2="29.119"></linearGradient><linearGradient xlink:href="#a" id="d" x1="83.769" x2="616.881" y1="592.231" y2="59.119"></linearGradient><linearGradient xlink:href="#a" id="e" x1="-22.231" x2="510.881" y1="486.231" y2="-46.881"></linearGradient><linearGradient xlink:href="#a" id="f" x1="145.769" x2="678.881" y1="654.231" y2="121.119"></linearGradient><linearGradient xlink:href="#a" id="g" x1="-2.231" x2="530.881" y1="506.231" y2="-26.881"></linearGradient><g data-name="Truck"><path fill="url(#a)" d="M128 216a72 72 0 1 0-72-72 72.081 72.081 0 0 0 72 72zm0-128a56 56 0 1 1-56 56 56.063 56.063 0 0 1 56-56z" opacity="1" data-original="url(#a)"></path><path fill="url(#b)" d="M138.343 165.657a8 8 0 0 0 11.314-11.314L136 140.687V104a8 8 0 0 0-16 0v40a8 8 0 0 0 2.343 5.657z" opacity="1" data-original="url(#b)"></path><path fill="url(#c)" d="M232 360h64a8 8 0 0 0 0-16h-64a8 8 0 0 0 0 16z" opacity="1" data-original="url(#c)"></path><path fill="url(#d)" d="M320 360h8a8 8 0 0 0 0-16h-8a8 8 0 0 0 0 16z" opacity="1" data-original="url(#d)"></path><path fill="url(#e)" d="M88 352a24 24 0 1 0 24 24 24.027 24.027 0 0 0-24-24zm0 32a8 8 0 1 1 8-8 8.009 8.009 0 0 1-8 8z" opacity="1" data-original="url(#e)"></path><path fill="url(#f)" d="M424 352a24 24 0 1 0 24 24 24.027 24.027 0 0 0-24-24zm0 32a8 8 0 1 1 8-8 8.009 8.009 0 0 1-8 8z" opacity="1" data-original="url(#f)"></path><path fill="url(#g)" d="M496 280h-10.291l-31.144-90.6A8 8 0 0 0 447 184h-87v-64a8 8 0 0 0-8-8H218.509a96 96 0 0 0-181.018 0H16a8 8 0 0 0-8 8v256a8 8 0 0 0 8 8h16.581a55.992 55.992 0 0 0 110.838 0h225.162a55.992 55.992 0 0 0 110.838 0H496a8 8 0 0 0 8-8v-88a8 8 0 0 0-8-8zm-54.709-80 27.5 80H360v-80zM128 64a80 80 0 1 1-80 80 80.091 80.091 0 0 1 80-80zM24 128h9.341a96 96 0 1 0 189.318 0H344v240H143.419a55.992 55.992 0 0 0-110.838 0H24zm64 288a40 40 0 1 1 40-40 40.045 40.045 0 0 1-40 40zm336 0a40 40 0 1 1 40-40 40.045 40.045 0 0 1-40 40zm64-48h-8.581a55.992 55.992 0 0 0-110.838 0H360v-72h128z" opacity="1" data-original="url(#g)"></path></g></g></svg>