<svg xmlns="http://www.w3.org/2000/svg" version="1.1" xmlns:xlink="http://www.w3.org/1999/xlink" width="512" height="512" x="0" y="0" viewBox="0 0 512 512" style="enable-background:new 0 0 512 512" xml:space="preserve"><g><linearGradient id="a" x1="105.151" x2="616.254" y1="594.849" y2="83.746" data-name="New Gradient Swatch 1" gradientUnits="userSpaceOnUse"><stop offset="0" stop-color="#003f8a"></stop><stop offset=".518" stop-color="#00d7df"></stop><stop offset="1" stop-color="#006df0"></stop></linearGradient><linearGradient xlink:href="#a" id="b" x1="65.151" x2="576.254" y1="554.849" y2="43.746"></linearGradient><linearGradient xlink:href="#a" id="c" x1="-18.849" x2="492.254" y1="470.849" y2="-40.254"></linearGradient><linearGradient xlink:href="#a" id="d" x1="9.151" x2="520.254" y1="498.849" y2="-12.254"></linearGradient><linearGradient xlink:href="#a" id="e" x1="-21.099" x2="490.004" y1="468.599" y2="-42.504"></linearGradient><linearGradient xlink:href="#a" id="f" x1="11.151" x2="522.254" y1="500.849" y2="-10.254"></linearGradient><linearGradient xlink:href="#a" id="g" x1="21.151" x2="532.254" y1="510.849" y2="-.254"></linearGradient><linearGradient xlink:href="#a" id="h" x1="-50.849" x2="460.254" y1="438.849" y2="-72.254"></linearGradient><path fill="url(#a)" d="M408 280a8 8 0 0 0 0-16h-56a8 8 0 0 0-8 8v96a8 8 0 0 0 8 8h56a8 8 0 0 0 0-16h-48v-32h32a8 8 0 0 0 0-16h-32v-32z" opacity="1" data-original="url(#a)"></path><path fill="url(#b)" d="M328 360h-48v-88a8 8 0 0 0-16 0v96a8 8 0 0 0 8 8h56a8 8 0 0 0 0-16z" opacity="1" data-original="url(#b)"></path><path fill="url(#c)" d="M160 280a8 8 0 0 0 0-16h-56a8 8 0 0 0-8 8v48a8 8 0 0 0 8 8h48v32h-48a8 8 0 0 0 0 16h56a8 8 0 0 0 8-8v-48a8 8 0 0 0-8-8h-48v-32z" opacity="1" data-original="url(#c)"></path><path fill="url(#d)" d="M288 248h56a8 8 0 0 0 8-8v-40a8 8 0 0 0-8-8h-16a8 8 0 0 0 0 16h8v24h-40v-80h48a8 8 0 0 0 0-16h-56a8 8 0 0 0-8 8v96a8 8 0 0 0 8 8z" opacity="1" data-original="url(#d)"></path><path fill="url(#e)" d="M271 240a8 8 0 0 0-7-7.931v-80.138A8 8 0 0 0 263 136h-15a8 8 0 0 0 0 16v80a8 8 0 0 0 0 16h15a8 8 0 0 0 8-8z" opacity="1" data-original="url(#e)"></path><path fill="url(#f)" d="M488.27 281.91c7.37-7.2 15.73-15.37 15.73-25.91s-8.36-18.71-15.73-25.91c-4.64-4.54-9.89-9.67-10.51-13.2-.67-3.8 2.6-10.59 5.48-16.59 4.39-9.15 9.37-19.51 5.86-29.14-3.57-9.81-14.16-14.59-23.51-18.81-5.97-2.7-12.73-5.75-14.57-8.93-1.89-3.27-1.16-10.72-.52-17.29 1-10.15 2.12-21.64-4.52-29.55-6.66-7.93-18.2-8.81-28.38-9.58-6.57-.5-14.02-1.07-16.88-3.48-2.84-2.38-4.68-9.6-6.31-15.97-2.52-9.91-5.39-21.15-14.38-26.35-8.91-5.16-20.02-2.06-29.81.68-6.38 1.78-13.62 3.8-17.2 2.5-3.41-1.25-7.58-7.35-11.26-12.73-5.8-8.49-12.38-18.11-22.71-19.92-10.02-1.76-18.93 4.63-27.54 10.8-5.44 3.91-11.6 8.33-15.51 8.33s-10.07-4.42-15.51-8.33c-8.61-6.17-17.51-12.56-27.54-10.8-10.33 1.81-16.91 11.43-22.71 19.92-3.68 5.38-7.85 11.48-11.26 12.73-3.58 1.3-10.81-.72-17.2-2.5-9.79-2.74-20.9-5.84-29.81-.68-8.99 5.2-11.86 16.44-14.38 26.35-1.63 6.37-3.47 13.59-6.31 15.97-2.86 2.41-10.31 2.98-16.88 3.48-10.18.77-21.72 1.65-28.38 9.58-6.64 7.91-5.51 19.4-4.52 29.55.64 6.57 1.37 14.02-.52 17.29-1.84 3.18-8.6 6.23-14.57 8.93-9.35 4.22-19.94 9-23.51 18.81-3.51 9.63 1.25 19.55 5.86 29.14 2.88 5.99 6.15 12.79 5.48 16.59-.62 3.53-5.87 8.66-10.51 13.2C16.36 237.29 8 245.46 8 256s8.36 18.71 15.73 25.91c4.64 4.54 9.89 9.67 10.51 13.2.67 3.8-2.6 10.59-5.48 16.59-4.39 9.15-9.37 19.51-5.86 29.14 3.57 9.81 14.16 14.59 23.51 18.81 5.97 2.7 12.73 5.75 14.57 8.93 1.89 3.27 1.16 10.72.52 17.29-1 10.15-2.12 21.64 4.52 29.55 6.66 7.93 18.2 8.81 28.38 9.58 6.57.5 14.02 1.07 16.88 3.48 2.84 2.38 4.68 9.6 6.31 15.97 2.52 9.91 5.39 21.15 14.38 26.35 8.91 5.16 20.02 2.06 29.81-.68 6.38-1.78 13.62-3.8 17.2-2.5 3.41 1.25 7.58 7.35 11.26 12.73 5.8 8.49 12.38 18.11 22.71 19.92 10.02 1.76 18.93-4.63 27.54-10.8 5.44-3.91 11.6-8.33 15.51-8.33s10.07 4.42 15.51 8.33c7.62 5.47 15.47 11.1 24.14 11.1a19.788 19.788 0 0 0 3.4-.3c10.33-1.81 16.91-11.43 22.71-19.92 3.68-5.38 7.85-11.48 11.26-12.73 3.58-1.3 10.81.72 17.2 2.5 9.79 2.74 20.9 5.84 29.81.68 8.99-5.2 11.86-16.44 14.38-26.35 1.63-6.37 3.47-13.59 6.31-15.97 2.86-2.41 10.31-2.98 16.88-3.48 10.18-.77 21.72-1.65 28.38-9.58 6.64-7.91 5.51-19.4 4.52-29.55-.64-6.57-1.37-14.02.52-17.29 1.84-3.18 8.6-6.23 14.57-8.93 9.35-4.22 19.94-9 23.51-18.81 3.51-9.63-1.25-19.55-5.86-29.14-2.88-5.99-6.15-12.79-5.48-16.59.62-3.53 5.87-8.66 10.51-13.2zm-11.19-11.44c-6.67 6.53-13.57 13.27-15.08 21.88-1.55 8.85 2.7 17.71 6.82 26.28 2.87 5.99 6.45 13.44 5.25 16.74-1.27 3.47-8.92 6.92-15.07 9.7-8.56 3.87-17.42 7.87-21.83 15.5-4.47 7.72-3.51 17.45-2.59 26.86.65 6.66 1.46 14.95-.85 17.7-2.34 2.78-10.66 3.41-17.34 3.92-9.42.72-19.16 1.46-25.96 7.18-6.79 5.69-9.19 15.14-11.52 24.27-1.66 6.51-3.73 14.62-6.89 16.45-3.09 1.79-11.08-.45-17.5-2.24-9.13-2.55-18.56-5.18-26.97-2.12-8.25 3-13.71 11-19 18.73-3.82 5.59-8.57 12.55-12.26 13.19-3.4.6-10.09-4.19-15.45-8.04-7.76-5.57-15.78-11.33-24.84-11.33s-17.08 5.76-24.84 11.33c-5.37 3.85-12.04 8.64-15.45 8.04-3.69-.64-8.44-7.6-12.26-13.19-5.29-7.73-10.75-15.73-19-18.73-8.41-3.06-17.84-.43-26.97 2.12-6.42 1.79-14.41 4.03-17.5 2.24-3.16-1.83-5.23-9.94-6.89-16.45-2.33-9.14-4.73-18.58-11.52-24.28-6.81-5.71-16.54-6.45-25.96-7.17-6.68-.51-15.01-1.14-17.34-3.92-2.31-2.76-1.5-11.04-.85-17.7.92-9.41 1.88-19.14-2.59-26.86-4.41-7.64-13.27-11.63-21.83-15.5-6.15-2.78-13.8-6.23-15.07-9.7-1.2-3.3 2.38-10.75 5.25-16.74 4.12-8.57 8.37-17.43 6.82-26.28-1.51-8.61-8.41-15.35-15.08-21.88C30.05 265.72 24 259.8 24 256s6.05-9.72 10.92-14.47C41.59 235 48.49 228.26 50 219.65c1.55-8.85-2.7-17.71-6.82-26.28-2.87-5.99-6.45-13.44-5.25-16.74 1.27-3.47 8.92-6.92 15.07-9.7 8.56-3.87 17.42-7.87 21.83-15.5 4.47-7.72 3.51-17.45 2.59-26.86-.65-6.66-1.46-14.95.85-17.7 2.34-2.78 10.66-3.41 17.34-3.92 9.42-.72 19.16-1.46 25.96-7.18 6.79-5.69 9.19-15.14 11.52-24.27 1.66-6.51 3.73-14.62 6.89-16.45 3.09-1.79 11.08.45 17.5 2.24 9.13 2.55 18.56 5.18 26.97 2.12 8.25-3 13.71-11 19-18.73 3.82-5.59 8.57-12.55 12.26-13.19 3.41-.6 10.09 4.19 15.45 8.04 7.76 5.57 15.78 11.33 24.84 11.33s17.08-5.76 24.84-11.33c5.37-3.85 12.05-8.64 15.45-8.04 3.69.64 8.44 7.6 12.26 13.19 5.29 7.73 10.75 15.73 19 18.73 8.41 3.06 17.84.43 26.97-2.12 6.42-1.79 14.41-4.02 17.5-2.24 3.16 1.83 5.23 9.94 6.89 16.45 2.33 9.14 4.73 18.58 11.52 24.28 6.81 5.71 16.54 6.45 25.96 7.17 6.68.51 15.01 1.14 17.34 3.92 2.31 2.76 1.5 11.04.85 17.7-.92 9.41-1.88 19.14 2.59 26.86 4.41 7.64 13.27 11.63 21.83 15.5 6.15 2.78 13.8 6.23 15.07 9.7 1.2 3.3-2.38 10.75-5.25 16.74-4.12 8.57-8.37 17.43-6.82 26.28 1.51 8.61 8.41 15.35 15.08 21.88C481.95 246.28 488 252.2 488 256s-6.05 9.72-10.92 14.47z" opacity="1" data-original="url(#f)"></path><path fill="url(#g)" d="M240 264h-56a8 8 0 0 0-8 8v96a8 8 0 0 0 16 0v-40h40v40a8 8 0 0 0 16 0v-96a8 8 0 0 0-8-8zm-8 48h-40v-32h40z" opacity="1" data-original="url(#g)"></path><path fill="url(#h)" d="M224 184h-8v-40a8 8 0 0 0-8-8h-40a8 8 0 0 0-8 8v96a8 8 0 0 0 8 8h56a8 8 0 0 0 8-8v-48a8 8 0 0 0-8-8zm-48-32h24v32h-24zm40 80h-40v-32h40z" opacity="1" data-original="url(#h)"></path></g></svg>