<svg xmlns="http://www.w3.org/2000/svg" version="1.1" xmlns:xlink="http://www.w3.org/1999/xlink" width="512" height="512" x="0" y="0" viewBox="0 0 512 512" style="enable-background:new 0 0 512 512" xml:space="preserve" class=""><g><path fill="#0291f7" fill-rule="evenodd" d="M78.682 426.058c0-23.348 17.757-44.89 50.027-60.656a12 12 0 1 1 10.539 21.56c-23.239 11.36-36.567 25.608-36.567 39.1 0 29.284 62.959 61.921 153.319 61.921s153.318-32.637 153.318-61.921c0-13.488-13.318-27.736-36.567-39.1A12 12 0 1 1 383.29 365.4c32.27 15.766 50.027 37.308 50.027 60.656 0 24.764-19.706 47.211-55.518 63.223-32.732 14.64-75.99 22.7-121.8 22.7s-89.072-8.058-121.8-22.7c-35.812-16.012-55.518-38.459-55.518-63.223zm67.035-356.6C89.24 125.941 89.66 217.112 146.74 291.181l106.207 137.8a3.851 3.851 0 0 0 6.1 0l106.212-137.8c57.08-74.069 57.5-165.24 1.019-221.722a156.447 156.447 0 0 0-220.561 0zm88.222 374.173a27.85 27.85 0 0 0 44.121 0l106.207-137.8c29.873-38.752 46.96-84.467 48.131-128.715 1.283-48.1-15.72-91.195-49.15-124.63a180.45 180.45 0 0 0-254.5 0C95.321 85.92 78.318 129.012 79.6 177.115c1.17 44.252 18.267 89.963 48.13 128.715l106.207 137.8zM256 276.481a85.925 85.925 0 1 1 85.929-85.925A86.017 86.017 0 0 1 256 276.481z" opacity="1" data-original="#0291f7"></path></g></svg>