<svg xmlns="http://www.w3.org/2000/svg" version="1.1" xmlns:xlink="http://www.w3.org/1999/xlink" width="512" height="512" x="0" y="0" viewBox="0 0 512 512" style="enable-background:new 0 0 512 512" xml:space="preserve" class=""><g><linearGradient id="a" x1="-24" x2="476.156" y1="160" y2="160" data-name="New Gradient Swatch 1" gradientUnits="userSpaceOnUse"><stop offset="0" stop-color="#003f8a"></stop><stop offset=".518" stop-color="#00d7df"></stop><stop offset="1" stop-color="#006df0"></stop></linearGradient><linearGradient xlink:href="#a" id="b" x2="476.156" y1="440" y2="440"></linearGradient><linearGradient xlink:href="#a" id="c" x2="476.156" y1="256" y2="256"></linearGradient><linearGradient xlink:href="#a" id="d" x2="476.156" y1="391.757" y2="391.757"></linearGradient><circle cx="72" cy="160" r="8" fill="url(#a)" opacity="1" data-original="url(#a)"></circle><circle cx="280" cy="160" r="8" fill="url(#a)" opacity="1" data-original="url(#a)"></circle><circle cx="72" cy="440" r="8" fill="url(#b)" opacity="1" data-original="url(#b)"></circle><path fill="url(#c)" d="M452 264h-92v-56a8 8 0 0 0-8-8h-32v-32a48.051 48.051 0 0 0-48-48h-32V56h8a8 8 0 0 0 8-8V16a8 8 0 0 0-8-8H104a8 8 0 0 0-8 8v32a8 8 0 0 0 8 8h8v64H80a48.051 48.051 0 0 0-48 48v264a48.069 48.069 0 0 0 40 47.32V496a8 8 0 0 0 8 8h32a8 8 0 0 0 8-8v-16h24.29A28.043 28.043 0 0 0 172 504h280a28.031 28.031 0 0 0 28-28V292a28.031 28.031 0 0 0-28-28zm-108-48v8h-64v-8zm0 24v24h-24v-24zm-40 0v24h-24v-24zM112 24h128v16H112zm112 32v64h-8V56zm-24 0v64h-48V56zm-64 0v64h-8V56zm-32 432H88v-8h16zm88 0h-20a12.01 12.01 0 0 1-12-12V292a12.01 12.01 0 0 1 12-12h20zm32 0h-16V280h16zm-52-224a28.031 28.031 0 0 0-28 28v172H80a32.042 32.042 0 0 1-32-32V168a32.042 32.042 0 0 1 32-32h192a32.042 32.042 0 0 1 32 32v32h-32a8 8 0 0 0-8 8v56zm212 224H240V280h144zm32 0h-16V280h16zm48-12a12.01 12.01 0 0 1-12 12h-20V280h20a12.01 12.01 0 0 1 12 12z" opacity="1" data-original="url(#c)"></path><path fill="url(#d)" d="m271.488 397.634 34.87 31.811a8 8 0 0 0 10.608 0l34.867-31.812a26.7 26.7 0 0 0-37.771-37.76l-2.4 2.4-2.4-2.4a26.706 26.706 0 1 0-37.775 37.762zm11.312-26.442a10.732 10.732 0 0 1 15.158 0l8.054 8.046a8 8 0 0 0 11.308 0l8.054-8.045a10.7 10.7 0 1 1 15.154 15.122l-28.866 26.455-28.862-26.456a10.683 10.683 0 0 1 0-15.122z" opacity="1" data-original="url(#d)"></path></g></svg>