<svg xmlns="http://www.w3.org/2000/svg" version="1.1" xmlns:xlink="http://www.w3.org/1999/xlink" width="512" height="512" x="0" y="0" viewBox="0 0 512 512" style="enable-background:new 0 0 512 512" xml:space="preserve"><g><linearGradient id="a" x1="28.209" x2="522.615" y1="481.658" y2="-12.748" data-name="New Gradient Swatch 1" gradientUnits="userSpaceOnUse"><stop offset="0" stop-color="#003f8a"></stop><stop offset=".518" stop-color="#00d7df"></stop><stop offset="1" stop-color="#006df0"></stop></linearGradient><linearGradient xlink:href="#a" id="b" x1="45.275" x2="539.682" y1="498.725" y2="4.318"></linearGradient><linearGradient xlink:href="#a" id="c" x1="-142.725" x2="351.682" y1="310.725" y2="-183.682"></linearGradient><linearGradient xlink:href="#a" id="d" x1="-140.725" x2="353.682" y1="312.725" y2="-181.682"></linearGradient><linearGradient xlink:href="#a" id="e" x1="5.275" x2="499.682" y1="458.725" y2="-35.682"></linearGradient><linearGradient xlink:href="#a" id="f" x1="195.275" x2="689.682" y1="648.725" y2="154.318"></linearGradient><linearGradient xlink:href="#a" id="g" x1="191.275" x2="685.682" y1="644.725" y2="150.318"></linearGradient><path fill="url(#a)" d="M428 8H84a28.031 28.031 0 0 0-28 28v416a28.026 28.026 0 0 0 16 25.29V496a8 8 0 0 0 8 8h48a8 8 0 0 0 8-8v-16h240v16a8 8 0 0 0 8 8h48a8 8 0 0 0 8-8v-18.71A28.026 28.026 0 0 0 456 452V36a28.031 28.031 0 0 0-28-28zM72 36a12.01 12.01 0 0 1 12-12h276v64H72zm48 452H88v-8h32zm304 0h-32v-8h32zm16-36a12.01 12.01 0 0 1-12 12H84a12.01 12.01 0 0 1-12-12V104h368zm0-364h-64V24h52a12.01 12.01 0 0 1 12 12z" opacity="1" data-original="url(#a)"></path><path fill="url(#b)" d="M408 288c0-83.813-68.187-152-152-152s-152 68.187-152 152 68.187 152 152 152 152-68.187 152-152zM256 424c-74.991 0-136-61.009-136-136s61.009-136 136-136 136 61.009 136 136-61.009 136-136 136z" opacity="1" data-original="url(#b)"></path><path fill="url(#b)" d="M256 168a120 120 0 1 0 120 120 120.136 120.136 0 0 0-120-120zm0 16a104.131 104.131 0 0 1 103.853 98.474c-14.451 4.859-57.948 16.5-100.7-1.827-43.5-18.642-86.393-10.126-106.516-4.112A104.146 104.146 0 0 1 256 184zm0 208a104.131 104.131 0 0 1-103.853-98.474c14.451-4.859 57.948-16.5 100.7 1.827a144.55 144.55 0 0 0 57.2 11.373 174.977 174.977 0 0 0 49.314-7.263A104.146 104.146 0 0 1 256 392z" opacity="1" data-original="url(#b)"></path><path fill="url(#c)" d="M88 48h80a8 8 0 0 0 0-16H88a8 8 0 0 0 0 16z" opacity="1" data-original="url(#c)"></path><path fill="url(#d)" d="M88 72h40a8 8 0 0 0 0-16H88a8 8 0 0 0 0 16z" opacity="1" data-original="url(#d)"></path><path fill="url(#e)" d="M408 80a24 24 0 1 0-24-24 24.027 24.027 0 0 0 24 24zm0-32a8 8 0 1 1-8 8 8.009 8.009 0 0 1 8-8z" opacity="1" data-original="url(#e)"></path><path fill="url(#f)" d="M424 440h-56a8 8 0 0 0 0 16h56a8 8 0 0 0 0-16z" opacity="1" data-original="url(#f)"></path><path fill="url(#g)" d="M424 416h-24a8 8 0 0 0 0 16h24a8 8 0 0 0 0-16z" opacity="1" data-original="url(#g)"></path></g></svg>